<?xml version="1.0" standalone="no"?>
<!DOCTYPE svg PUBLIC "-//W3C//DTD SVG 20010904//EN"
 "http://www.w3.org/TR/2001/REC-SVG-20010904/DTD/svg10.dtd">
<svg version="1.0" xmlns="http://www.w3.org/2000/svg"
 width="520.000000pt" height="520.000000pt" viewBox="0 0 520.000000 520.000000"
 preserveAspectRatio="xMidYMid meet">
<metadata>
Created by potrace 1.11, written by Peter Selinger 2001-2013
</metadata>
<g transform="translate(0.000000,520.000000) scale(0.100000,-0.100000)"
fill="#000000" stroke="none">
<path d="M550 5191 c0 -5 -22 -11 -50 -15 -27 -4 -50 -11 -50 -15 0 -5 -12
-12 -26 -15 -15 -4 -32 -12 -39 -19 -7 -7 -23 -19 -35 -27 -12 -8 -34 -25 -48
-37 -15 -13 -29 -23 -32 -23 -3 0 -14 -14 -24 -31 -10 -18 -26 -39 -35 -48
-61 -61 -144 -253 -178 -411 -17 -80 -18 -187 -18 -1955 0 -1752 1 -1875 18
-1955 20 -97 69 -236 104 -295 13 -22 30 -55 38 -72 9 -18 19 -33 24 -33 5 0
21 -19 36 -42 28 -42 72 -88 85 -88 6 0 18 -9 66 -49 6 -5 21 -12 35 -16 13
-4 27 -12 30 -17 16 -25 214 -28 2148 -28 1974 0 2151 2 2151 30 0 4 12 11 26
14 14 4 31 11 37 17 46 38 61 49 67 49 13 0 57 46 85 88 15 23 31 42 36 42 5
0 15 15 24 32 8 18 26 53 41 77 30 51 71 161 90 241 33 138 35 292 32 2100 -4
1673 -5 1800 -22 1870 -37 158 -109 321 -180 407 -34 42 -111 117 -135 133
-13 8 -29 20 -36 27 -7 7 -24 15 -39 19 -14 3 -26 10 -26 15 0 4 -23 11 -50
15 -28 4 -50 10 -50 15 0 5 -892 9 -2050 9 -1158 0 -2050 -4 -2050 -9z m24
-1193 c13 -13 34 -30 46 -38 13 -8 38 -30 58 -47 19 -18 38 -33 42 -33 7 0 23
-12 85 -65 69 -58 78 -65 86 -65 4 0 23 -15 42 -32 20 -18 45 -40 57 -48 12
-8 31 -23 42 -32 12 -10 24 -18 28 -18 4 0 23 -15 42 -32 20 -18 45 -40 58
-48 12 -8 30 -22 40 -30 30 -25 68 -54 90 -70 12 -8 37 -30 57 -47 19 -18 38
-33 43 -33 5 0 24 -15 43 -32 20 -18 45 -40 57 -48 12 -8 31 -23 42 -32 12
-10 24 -18 28 -18 4 0 23 -15 42 -32 20 -18 45 -40 58 -48 12 -8 32 -24 44
-35 13 -11 33 -27 45 -35 37 -25 60 -43 97 -77 20 -18 39 -33 43 -33 8 0 17
-7 86 -65 63 -53 78 -65 86 -65 4 0 23 -15 42 -32 20 -18 45 -40 57 -48 12 -8
30 -22 40 -30 32 -27 68 -55 91 -70 12 -8 37 -30 57 -47 19 -18 38 -33 42 -33
7 0 23 -12 85 -65 17 -14 41 -34 54 -45 30 -25 63 -34 94 -26 22 5 34 14 102
71 68 57 78 65 85 65 4 0 23 15 42 33 20 17 45 39 58 47 12 8 30 22 40 30 32
27 68 55 91 70 12 8 37 30 57 48 19 17 38 32 42 32 7 0 17 8 85 65 63 53 78
65 86 65 4 0 23 15 42 33 20 17 45 39 57 47 12 8 30 22 40 31 10 8 31 24 45
35 15 10 35 26 45 34 10 8 28 22 40 30 12 8 32 24 44 35 13 11 33 27 46 35 12
8 38 29 56 45 53 47 59 52 85 65 13 7 36 25 50 39 15 14 37 33 49 41 12 8 30
22 41 30 41 32 71 56 89 70 10 8 28 22 40 30 12 8 32 24 44 35 13 11 33 27 46
35 12 8 38 29 56 45 53 47 59 52 85 65 13 7 36 25 50 39 15 14 37 33 49 41 12
8 30 22 41 30 41 32 71 56 89 70 10 8 28 22 40 30 12 8 33 25 46 38 14 12 28
22 31 22 4 0 4 -2 2 -5 -3 -2 -18 -20 -34 -40 -17 -20 -48 -56 -70 -80 -22
-23 -62 -68 -90 -100 -27 -31 -66 -74 -85 -96 -19 -21 -57 -64 -85 -95 -27
-31 -68 -76 -90 -100 -22 -23 -53 -59 -70 -80 -16 -20 -48 -56 -70 -80 -35
-37 -94 -103 -160 -179 -67 -77 -125 -143 -160 -181 -22 -23 -53 -57 -68 -76
-34 -40 -105 -119 -169 -190 -78 -85 -77 -88 108 -356 86 -123 158 -232 162
-241 3 -9 98 -149 210 -311 113 -162 207 -302 210 -310 3 -8 61 -95 129 -193
68 -98 123 -180 123 -183 0 -5 -70 67 -330 337 -80 83 -160 165 -178 182 -19
18 -41 40 -50 51 -17 18 -191 201 -212 221 -54 53 -334 342 -402 414 -73 78
-73 78 -233 -74 -35 -33 -98 -91 -139 -130 -42 -38 -115 -107 -163 -153 -49
-45 -100 -94 -115 -108 l-28 -25 -27 25 c-16 14 -67 63 -115 108 -48 46 -122
115 -163 153 -42 39 -105 97 -140 130 -163 155 -158 153 -247 60 -68 -71 -230
-238 -513 -530 -99 -102 -241 -248 -315 -325 -144 -148 -174 -179 -190 -195
-6 -5 -40 -41 -75 -78 -36 -37 -65 -66 -65 -63 0 3 48 74 106 158 59 84 109
161 112 171 2 9 8 17 13 17 5 0 13 10 18 23 5 12 101 155 213 317 112 162 207
302 210 311 4 9 76 118 162 241 185 268 186 271 109 356 -52 57 -129 142 -165
183 -78 90 -128 146 -163 184 -22 24 -53 60 -70 80 -16 20 -48 56 -70 79 -22
24 -62 69 -90 100 -27 31 -66 74 -85 95 -19 21 -50 56 -68 77 -52 61 -122 140
-182 204 -30 32 -68 76 -85 96 -16 20 -48 56 -70 80 -22 23 -53 59 -70 79 -16
20 -31 38 -34 40 -2 3 -2 5 2 5 3 0 17 -10 31 -22z"/>
</g>
</svg>
